<svg xmlns="http://www.w3.org/2000/svg" viewBox="0 0 40 40"><defs><style>.a,.c{fill:#fff;}.a,.b,.d{fill-rule:evenodd;}.b{fill:#ea184d;}.d{opacity:0.2;isolation:isolate;}</style></defs><title>privacy-mode-menu-icon</title><path class="a" d="M18.2145,38.1272c-1.406-1.4748-13.736-14.64-13.736-22.6043a15.5215,15.5215,0,1,1,31.0429,0c0,7.9646-12.331,21.13-13.737,22.6053L20,40Z"/><path class="b" d="M20,2.4665A13.06,13.06,0,0,0,6.9446,15.523C6.9446,22.731,20,36.4259,20,36.4259S33.0554,22.731,33.0554,15.523A13.06,13.06,0,0,0,20,2.4665Z"/><path class="c" d="M26.5492,8.9456a9.2931,9.2931,0,1,0-6.57,15.8622h.0032A9.2935,9.2935,0,0,0,26.5492,8.9456ZM14.5609,10.1a7.6718,7.6718,0,0,1,10.227-.5462L14.015,20.3272A7.6716,7.6716,0,0,1,14.5609,10.1ZM25.3985,20.9379a7.6076,7.6076,0,0,1-5.4166,2.2393H19.98A7.6132,7.6132,0,0,1,15.1683,21.48L25.9407,10.707a7.6736,7.6736,0,0,1-.5422,10.2309Z"/><path class="d" d="M7.5689,16.1472A13.0526,13.0526,0,0,1,29.537,6.61,13.0529,13.0529,0,0,0,6.9446,15.5229C6.9446,22.731,20,36.4258,20,36.4258l.0221-.0233C17.4585,33.6084,7.5689,22.4213,7.5689,16.1472Z"/></svg>